<svg width="175" height="46" viewBox="0 0 175 46" fill="none" xmlns="http://www.w3.org/2000/svg">
<g clip-path="url(#clip0_12_64)">
<path d="M45.8856 22.8885C45.8856 22.642 45.8749 22.3984 45.8671 22.1539C45.4879 10.2747 36.0771 0.678032 24.2694 0L25.7909 8.79006C32.3868 10.112 37.3559 15.9328 37.3559 22.9138C37.3559 30.8699 30.9033 37.319 22.9428 37.319C14.9823 37.319 8.52972 30.8699 8.52972 22.9138C8.52972 16.2455 13.0631 10.6371 19.2165 8.99562L20.6776 0.0594252C9.30169 1.16902 0.365518 10.5806 0 22.1539C0 34.5767 10.5981 45.4398 22.934 45.8285C35.6073 45.8285 45.8807 35.5626 45.8856 22.8982V22.8943C45.8856 22.8924 45.8856 22.8904 45.8856 22.8885Z" fill="url(#paint0_radial_12_64)"/>
<path fill-rule="evenodd" clip-rule="evenodd" d="M24.6544 19.6055L28.3271 17.2957L25.9839 20.8982L32.4755 22.8885L25.9839 24.8797L28.3271 28.4812L24.6544 26.1715L22.6465 32.7121L20.6386 26.1715L16.9659 28.4812L19.3101 24.8797L12.8175 22.8885L19.3101 20.8972L16.9659 17.2957L20.6386 19.6055L22.6465 4.71797L24.6544 19.6055Z" fill="white"/>
<path fill-rule="evenodd" clip-rule="evenodd" d="M71.6649 40.7307C72.1365 40.7307 72.5675 40.836 72.9368 41.0433C73.3061 41.2518 73.5928 41.5427 73.7985 41.9157C74.004 42.2878 74.103 42.7163 74.0962 43.2023C74.0962 43.2841 74.0931 43.3682 74.0863 43.4529C74.0795 43.5386 74.0684 43.6329 74.0557 43.735H70.2609C70.2813 44.0088 70.3576 44.2488 70.4911 44.4583C70.6246 44.6666 70.7954 44.8284 71.0038 44.9452C71.2124 45.0621 71.4511 45.1195 71.7171 45.1195C72.0588 45.1195 72.3562 45.0524 72.6085 44.9201C72.8618 44.7866 73.0395 44.6079 73.1418 44.3819L73.9828 44.6793C73.7782 45.0961 73.4788 45.4205 73.0852 45.6523C72.6925 45.8851 72.2387 46.0009 71.7261 46.0009L71.7279 46C71.2357 46 70.7993 45.8857 70.4192 45.6559C70.0402 45.427 69.7431 45.1102 69.5278 44.708C69.3124 44.3048 69.204 43.8437 69.204 43.3236C69.204 42.8035 69.31 42.3807 69.5215 41.9912C69.733 41.6016 70.0253 41.2944 70.3985 41.0694C70.7707 40.8435 71.1933 40.7307 71.6649 40.7307ZM71.6559 41.6021C71.4232 41.6022 71.2094 41.6592 71.0146 41.7711C70.8198 41.884 70.6561 42.0372 70.5226 42.2329C70.3891 42.4276 70.3058 42.6518 70.2717 42.904H73.0402C73.0402 42.6586 72.9786 42.436 72.8558 42.2373C72.7331 42.0399 72.5676 41.884 72.3593 41.7711C72.1508 41.6591 71.9161 41.6022 71.6559 41.6021Z" fill="white"/>
<path fill-rule="evenodd" clip-rule="evenodd" d="M81.6355 40.7307C82.2777 40.7307 82.7673 40.8917 83.1025 41.2131C83.4376 41.5346 83.6053 41.9585 83.6053 42.4853V45.929H82.7122L82.6303 45.1797C82.4734 45.4397 82.2699 45.6396 82.0205 45.7799C81.7711 45.9201 81.4473 45.9901 81.0508 45.9901C80.6817 45.9901 80.3674 45.9301 80.1073 45.8104C79.8471 45.6906 79.6468 45.5234 79.5065 45.3082C79.3662 45.093 79.296 44.8426 79.296 44.5553C79.296 44.1247 79.4574 43.767 79.779 43.4835C80.0996 43.2003 80.5644 43.0252 81.1732 42.9561L82.6294 42.7908V42.391C82.6294 42.1728 82.5405 41.986 82.3632 41.8321C82.1849 41.6785 81.9281 41.6013 81.5941 41.6013C81.2797 41.6013 81.0136 41.6746 80.7945 41.8214C80.5762 41.9694 80.4288 42.1863 80.3538 42.4736L79.4921 42.1655C79.6217 41.7155 79.8765 41.363 80.2566 41.1107C80.6357 40.8576 81.0957 40.7307 81.6355 40.7307ZM81.2253 43.7548C80.9245 43.7957 80.6991 43.8791 80.5489 44.0055C80.398 44.132 80.3224 44.2979 80.3223 44.5023C80.3223 44.6942 80.3955 44.8536 80.5427 44.9803C80.6898 45.1068 80.8965 45.1689 81.1624 45.1689C81.4907 45.1689 81.7643 45.1076 81.9836 44.9839C82.2017 44.8621 82.3649 44.6884 82.4711 44.4664C82.5772 44.2444 82.6294 43.9868 82.6294 43.6928V43.5805L81.2253 43.7548Z" fill="white"/>
<path d="M97.3384 40.8025H98.6201V41.6641H97.3384V44.1861C97.3384 44.5007 97.4014 44.7231 97.5282 44.8527C97.6548 44.982 97.8156 45.0552 98.0103 45.0728C98.2051 45.0903 98.4096 45.0849 98.621 45.0566V45.8868C98.3404 45.9481 98.0652 45.9667 97.7953 45.9434C97.5254 45.9191 97.2821 45.8421 97.0667 45.7116C96.8515 45.5821 96.6807 45.393 96.554 45.1438C96.4274 44.8944 96.3643 44.5748 96.3642 44.1852V41.6632H95.6267V40.8016H96.3633V39.3677H97.3384V40.8025Z" fill="white"/>
<path d="M57.5226 44.7395L59.1642 38.7532H60.3029L61.9336 44.7188L63.4717 38.7532H64.5484L62.5075 45.9281H61.3598L59.729 40.2796L58.0884 45.9281H56.9479L54.8971 38.7532H55.9944L57.5226 44.7395Z" fill="white"/>
<path d="M90.2605 45.9281H89.2962V38.5475H90.2605V45.9281Z" fill="white"/>
<path d="M104.005 38.5475H104.969V41.3668C105.133 41.1692 105.345 41.0134 105.605 40.9005C105.865 40.7875 106.152 40.7307 106.467 40.7307C106.85 40.7307 107.187 40.8157 107.477 40.9822C107.767 41.1498 107.994 41.3986 108.159 41.7306C108.323 42.0627 108.405 42.4735 108.405 42.9651V45.9272H107.389V43.0873C107.389 42.6091 107.29 42.2426 107.092 41.9903C106.893 41.738 106.603 41.6112 106.22 41.6111C105.837 41.6111 105.515 41.7411 105.297 42.0011C105.079 42.2611 104.969 42.6409 104.969 43.1385V45.9272H104.004V38.5466L104.005 38.5475Z" fill="white"/>
<path fill-rule="evenodd" clip-rule="evenodd" d="M158.592 0.297386C167.617 0.297539 175.001 7.67669 175.001 16.6966C175.001 25.7164 167.617 33.0965 158.592 33.0966H154.464V33.1946H146.75V0.394417H150.503V0.297386H158.592ZM154.464 25.928H158.592C163.671 25.9279 167.827 21.7738 167.827 16.6975C167.827 11.6211 163.671 7.46707 158.592 7.46692H154.464V25.928Z" fill="white"/>
<path d="M73.4225 20.3739V0.297386H80.5948V33.0966H72.3233L62.0164 14.0264V33.0966H54.8422V0.297386H62.5902L73.4225 20.3739Z" fill="white"/>
<path fill-rule="evenodd" clip-rule="evenodd" d="M134.428 0.297386C140.306 0.29752 145.116 5.10371 145.116 10.9798V11.2754C145.116 15.8871 142.044 20.5238 138.032 22.5472L144.582 33.0966H137.41L131.21 23.177H125.788V33.0966H118.616V0.297386H134.428ZM126.393 15.8224H133.412C135.667 15.8222 137.511 13.9786 137.511 11.7255V11.6114C137.511 9.35826 135.667 7.51386 133.412 7.51364H126.393V15.8224Z" fill="white"/>
<path fill-rule="evenodd" clip-rule="evenodd" d="M99.5016 0.143753C108.569 0.143753 115.92 7.49178 115.92 16.5546C115.92 25.6173 108.569 32.9646 99.5016 32.9646C90.434 32.9645 83.0829 25.6173 83.0827 16.5546C83.0827 7.4918 90.4339 0.143789 99.5016 0.143753ZM99.5016 7.23422C94.3512 7.23426 90.1768 11.407 90.1768 16.5546C90.177 21.702 94.3513 25.8741 99.5016 25.8741C104.652 25.8741 108.826 21.7021 108.826 16.5546C108.826 11.407 104.652 7.23422 99.5016 7.23422Z" fill="white"/>
</g>
<defs>
<radialGradient id="paint0_radial_12_64" cx="0" cy="0" r="1" gradientUnits="userSpaceOnUse" gradientTransform="translate(22.3317 -1.87823) scale(46.5913 46.566)">
<stop offset="0.06" stop-color="#007DC2"/>
<stop offset="0.53" stop-color="#222E59"/>
</radialGradient>
<clipPath id="clip0_12_64">
<rect width="175" height="46" fill="white"/>
</clipPath>
</defs>
</svg>
